<?xml version="1.0" encoding="UTF-8" standalone="no"?>
<svg xmlns="http://www.w3.org/2000/svg" width="100.96926" height="110.45124" version="1.0">
  <path fill="#1d3b85" d="M100.96926 110.45124V0H.05169L0 110.45124h100.96926z"/>
  <path fill="#fff" d="M47.71516 26.18666s-3.20498-.21643-3.78346-.39598c-.57601-.17954-1.62218-.75752-1.73049-1.07972-.10585-.32465.03692-1.1535.71878-.82885.68678.32465.95756.75753 2.38282.86328.61047.04674 1.52864.19922 1.63941.17955l.77294 1.26172zM17.09305 15.37224c.97233.75507 5.62226 4.78865 9.18909 5.47485h2.30651v-1.6946h1.87573v1.6946h1.15202v4.21312h-1.11756v6.22746l.61539.61487.43078-2.48655s.03693-.21644.50709-.36155c.4677-.14265.82709-.2853.82709-.2853s.64986-1.5126.39632-2.52099c-.07631-.31236.61047.43041.82709.75507.13292.19676.49231 1.33305.44554 2.12746-.04677.77229-.096.94691-.21169 1.74625-.05662.42795-1.18156 1.761-1.92496 2.46442 0 0 .4677.35909.50462.54109l1.47942-.29022.68185 1.26172 4.72132 2.59477-1.89788 4.72716-4.62531-4.15409-2.01604-.39352.61047-1.11662-1.29725-.72309v20.28842s.50216.23857.98709.95921l.57847-.09347-.91571-2.35374s-.096-.38368.18955-.81655c.29292-.43287.81724-.4796.67447-1.10432-.14523-.62471-.43324-1.63065-.82709-2.1373l.94771.1574s1.37848 1.5249 1.63449 2.15945c.05662.15003.47016 1.74132.45785 2.10287-.00984.19184-.24123 2.91451-.256 2.98583l.85417.26563 5.81672-11.69984-3.12129.01229c1.83142-3.08913 3.27391-9.15672 3.92869-9.96343 1.12249-1.37732 2.35574-3.07438 4.229-4.32135 1.15695-.76736 7.2026-2.09303 7.2026-2.09303l.64986-1.69214-5.15702-.61241.94032-1.44127-1.18894-1.72903s-.53909-1.69213-.43078-1.943c.10585-.25333 2.91698-3.16784 2.91698-3.16784l-1.11756-4.93622s.57847-.35908 1.47941.72064c0 0 2.27205-.82886 2.16374 1.07972-.02216.34187-.17232 1.12891-1.26526.94936-.32493-.0541-.44555-.21643-.55139-.36154l-.13047.14511.39386 1.1904 3.8573.73047.6474-.9715-.10339-.08609s-1.46218.49928-1.65911-1.07972c-.03938-.28776.28554-1.23713 1.34403-.9592 0 0 .16738.04673.41847.15495 0 0 .33477-.93461 1.23817-.76737.17724.03443.87633.14511.95017 1.09202 0 0 1.47942-.27546 1.42772 1.22483-.00738.2976-.43324.98626-1.06833.90018-.23631-.02952-.77786-.25087-.86401-.31236-.08369-.05903-.07139.04919-.04431.15495.01723.10822.20185 1.09217.20185 1.09217l3.73451.68531.93512-.89944s-.02216-.13773-.0837-.15495c-.10585-.03689-1.2111.44271-1.65664-.58782-.04185-.1033-.3594-1.23713 1.0314-1.45602.1797-.02706.83448-.03443 1.31202.78212 0 0 .73602-.53617 1.28249-.55339.29047-.00492.5317.06149.77048.16971l-2.78406 4.15163c.12757.0054 1.24803.25333 1.53849.54109.08124.08609.17724 1.90858.02462 2.22093-.07385.14019-1.13233 1.80036-1.62465 2.24553 0 0 .25109 3.01288-.03938 5.101-.23631 1.70935-1.63696 4.55991-3.34037 8.30573-.32985.7231-1.02402 2.24061-1.44987 3.1457-.18955.4009-.10093 2.49886-.10093 2.73743-.18608-.03266-1.35555-.64634-1.33664-.182 0 0 .24862 10.09624.71386 13.00337.07631.46485.94032-.29022 4.90348 2.25537 1.02155.65422 7.17551 5.83147 11.19528 6.76854 1.85357.43287 6.6512-.42303 5.42779-5.12806-.21415-.82147-1.63203-2.75218-3.3576-4.28199-1.20617-1.06496-6.51581-5.71342-7.40198-7.5851-.63263-1.33305-2.69297-4.03604 1.63203-8.97963.6277-.71818 6.24996-6.05037 8.84201-8.45085.78278-.72309 4.95025-5.54617 2.98344-9.65108-.84186-1.75116-3.82038-4.48858-7.47829-1.82495-.41847.30498-1.3908 1.72657-1.10033 2.97846 0 0 2.54774 1.14367 2.88252 2.03893.99694 2.67593-.40863 7.05876-.70156 7.51377l-.73847.60012s.21416-1.65525.09108-2.51853c-.11816-.86575-.35693-1.94547-.52432-2.26028l-.89109-.40582s.84186 3.77041-.16739 4.89933c-.21662.23857-5.95704 3.81468-7.61861 6.43405l-.88863.11805s2.00127-4.60664 3.48314-6.72181c.50955-.72063 1.80681-2.43245 2.09235-4.39267.07139-.47714.04677-.93707-.18954-.72063-.2437.21643-1.98404 1.88398-2.14158 2.04138-.17969.17955-.7754.14757-.88863.14265 0 0 1.99142-3.98439 3.03021-5.1133.42585-.46484.52678-.79196.55139-1.1535.0197-.35909.19201-4.92146 4.63517-6.33813.72616-.2312 5.60256-1.22238 8.33985 3.36213.37169.62718 2.49604 4.1295-.86402 9.69781-.22893.38123-1.78219 2.71529-3.12621 4.25002-.26093.30006-3.26899 4.1295-3.26899 4.61156 0 .04673.18954-.02951.18954-.02951s1.63696-.28284 1.78219-.33203c.1477-.04919 2.5699.50419 2.5699.50419l2.79143-.67144-.24369.81655-8.7214 4.68043-.02215.76983 1.77726-.48207s.18954-.16724 1.00925-.02213c.81479.14265 2.64128.45501 2.93175.40828.28554-.04919 2.63882-.79442 2.63882-.79442l-.14031.91247-7.4783 4.10737.09847.71817 1.58772-.40828s.05169-.04919.67447.07133 2.52067.33695 2.52067.33695l2.33112-.67144-.04431.84115-5.64688 3.21456s2.68313 3.9598 3.29853 4.89195c2.46896 3.71139.92801 6.78576-.13047 7.99092-.224.25333-1.96927 2.67593-6.20073 2.26766-.41108-.03936-3.24437-.17955-9.0094-3.85404-.70647-.45009-2.70282-1.62081-3.89176-2.55788-.50217-.39352-3.20499-2.66364-3.20499-2.66364l-1.34894.43041s3.06467 2.55296 3.47329 2.99076c.50216.54109 3.66038 3.71876 4.39885 4.82554.21662.32465 2.12435 1.83724 4.25116 3.06207.22646.13036 1.38587.05411 2.19573.71818.74094.60749 1.98404 2.32914 2.13173 2.84564.15262.56077-.03938 1.22483 0 1.36994.03447.14265 3.85731 6.88906 4.93302 9.2551.54119 1.19036 1.24678 2.2613 2.1465 3.23178l-.192.68866-3.82777-.7895-3.05975.86575s.07631 2.58739-.61539 3.09651c-.18708.13527-.97479.43041-1.73296.17954 0 0-1.18894 1.29616-.71632 2.12501 0 0-.47262-.21643-.71878-.32465 0 0-.79509-2.4841.24616-3.6376.21169-.22874.79509-1.11416.79509-1.11416l-.6474-.25333s-1.34156 1.90858-2.4862 2.08812c-.32493.05165-1.08556-.17954-1.47941-.72063-.08616-.1156-1.73049.97396-1.8708 1.44126l-.32739-.82885s1.04371-2.01679 1.51141-2.4472c.47262-.43287.57601-.64931 1.12002-.82885.53662-.17955 2.52066-.32466 2.73728-.39598l.07385-.68374s-1.76496 0-2.0185-.18201c-.25601-.17954-.32493-1.15104-.6154-1.40191-.288-.25333-1.26033-.50666-2.0505-.36155 0 0 .53663-.9715 1.51388-.9715.45047 0 1.94465-.72063 3.38714.14265.50955.30744 1.69357.86329 2.95144 2.34144l1.62464-.39597s-2.05542-3.63761-3.49545-4.86244c-.70401-.59766-3.38714-3.70892-3.74899-4.1049-.35939-.39598-.60063-.67637-5.01179-1.22483-.60801-.07625-7.14597.24103-8.43338-.35909-.93048-.43533-4.05916-3.63268-4.7804-5.07887-.41601-.83131.53416-3.22932 1.18402-5.92248.22401-.92723 1.37357-4.87965 1.37357-5.64701v-1.92087l-1.24803-.91247s.05908 2.06352.00985 2.49639c-.04923.43287-.9231 4.27215-2.65113 10.08149-.18462.61734-.43324 1.8889.43078 2.83335.45785.50173 2.41481 3.02518 2.41481 3.02518s-.37908.24841-.48247.33695c-.45047.3886-1.48926 1.5126-1.83634 2.25536-.29047.62472-.72124.96167-.62278 2.30456.04185.58536.14277 1.87414.14277 1.87414s-1.02155 1.24696-2.0308 1.87413c-.52186.26071-1.14464.30744-1.71819.19185 0 0-7.73676 5.76261-8.17 5.95199-.43324.19184-2.3582 2.84072-2.3582 2.84072h-.4357c-.11069-.72937-.2218-1.46645-.45539-2.1619-.12062-.35909-.18462-.37385-.85171-.50174-1.04371-.20168-1.5311-.2976-1.62957.23119-.04184.2312-.38647 1.5126-.38647 1.5126s-.89847.92477-1.48679 1.49045c-.44063.4132-1.10033.57799-1.88804.8264-.10585.03197-.32493-.04673-.32493-.04673s-.67447-.14512-.81478-.14512c0 0 1.58526-.93461 1.58526-1.51259v-.14511s-.82709-1.18794-.61047-1.58392c.21415-.39598.8517-1.23713 1.96926-1.66754l-.384-.5042s-2.38036.47961-2.71759.3345c-.33478-.14265-.86648-.69604-1.08064-1.22237-.07631-.18939 0-.43288-.43324-.43288s-1.00679.07133-1.27264.24103c-.26585.16725-.76801.47715-.76801.47715l.02461-.91002s1.5828-1.27402 1.8265-1.34534c.24124-.07133 1.80188-.43042 1.99142-.40828.19447.02459.14277-.07133.84433.24103.69416.31236 1.75264 1.05512 1.87326.9838.11816-.07133.50216-.45501.50216-.45501s-1.77972-1.87168-1.82403-2.06598c-.04923-.19184.31262-1.10431.7434-1.39208 0 0 .16739-.57552-.14277-1.00839-.31509-.43287-1.00679-1.07972-1.10525-1.15351l1.17909-.11805s1.63204 1.10431 1.75511 1.27156c.11816.16725.54894 1.17564 1.00433 1.75362.19693.24349.26831 1.07972.29293 1.29616.01969.21644.09108 1.77576.09108 1.943 0 0 1.05848.33696 2.16619.24104 2.78004-1.95461 4.57602-4.93137 7.10906-7.1301.48247-.21889.86401-.36154.86401-.36154s-.96001-.9838-1.12494-1.67984c-.224-.91248-.12062-8.04257.86402-10.85132.19692-.56814 1.77972-1.87414 2.30404-2.18403.28308-.16479 4.59085-3.6745 6.05796-4.34594.224-.1033.21662-.14511.14523-.33695-.05169-.13036-.54401-2.42261-1.19141-4.15164-.43077-.91739-1.10771-1.49046-1.81664-2.54558l5.26532-7.41785-.96001-.81656-12.80024 18.03798h-.50217l-.70893-2.64888s-1.24803-.28777-1.44003-.19185c-.18954.09592-1.4671 3.05716-1.77972 3.26376-.14524.09592-.7951-.16724-.8394-.18938v5.73555h-1.87573v-5.5929s-.50216.04673-.86402.76736c-.11569.2312-.48247.95921-.48247.95921l-.40862-.86328s.55386-2.35129 1.03633-2.88008c.32246-.35417.74339-.69604.74339-.88788 0-.1943-.06892-2.11271-.06892-2.11271s-.81971.04673-1.01171-.12052c-.192-.16724-.69909-1.77575-1.08064-1.92087-.384-.14511-1.92249-.04673-2.16373.0246 0 0 .31508-.74523.79017-1.0084.38154-.20905 1.9028-.83869 3.46591-.52879V37.77091c-.57571-.01373-1.04451 1.1216-1.53849.90264-.32739-.14512-.86402-1.11662-1.69849-.50666-.39878.2976-1.11264 1.18794-1.11264 1.18794l-.34216-.37877.19693-1.18302s.65478-1.30845 1.51387-2.14714c.36432-.35909 1.87573-1.22483 2.98836-1.33059l.03693-.72309s-1.79942-.03444-2.05296-.21644c-.25108-.17708-.79509-1.40191-.75817-1.761 0 0-.79263-.79442-2.44682-.46977l.53663-.93706s2.08988-.5042 2.9219-.35909c.82709.14265 1.54588.28776 1.76249.35909v-5.14774s-1.54341-.22135-2.44927.28776c-1.47449.82885-5.22595 5.04198-5.76749 5.9397 0 0-3.92869-6.84233-3.35022-15.91543m32.83507 9.70027.21662 1.43881 4.72132.52387-.29047-1.35273-4.64747-.60995zm1.07325-2.80383c.0517 1.36748 1.55819 1.05758 1.83881.95428 1.65911-.61241 1.00925-1.63802 1.00925-1.63802 2.86282-.25333 6.12688 1.24204 6.12688 1.24204l1.64188-1.04528-10.07527-1.87168-1.8388 1.80035.23631 1.0994 1.06094-.54109zm10.22296 1.29124c.07877.05656.61786.31727 1.06341 1.59375 0 0 .6794-.66652.89109-1.23221.03693-.09592-.08861-.51403-.01969-.84607 0 0-.42339-.25332-.75571-.27054-.50234-.02603-.86768.55565-1.1791.75507zM43.39754 41.1724c.032-.1279 1.70095-3.65728 2.22527-4.10983.50463-.43041 3.18529-1.00347 3.18529-1.00347l.44801-1.2814c-2.43204.48452-3.01544.77474-4.09115 1.15842-1.08064.38122-3.1016 5.2412-3.1016 5.2412l1.33418-.00492zM31.74932 59.73917s-.096-.46977-.12061-.56323c-.01231-.06395-.06893-.07132-.20432-.09838-.20185-.03935-.89847.08362-.89847.08362v1.16581l1.2234-.58782"/>
</svg>